# xmcd
#
# Track frame offsets:
#  150
#  13072
#  23877
#  40025
#  48455
#  66477
#  76312
#  95670
#  104055
#  120042
#  131920
#  148282
#  158732
#  176472
#  186437
#  206625
#
# Disc length: 2944 seconds
#
# Revision: 0
# Processed by: cddbd v1.4PL0 Copyright (c) Steve Scherf et al.
# Submitted via: AltoMP3_Maker 3.0
#
DISCID=e60b7e10
DTITLE=Juanita Hall - The Glory of Love
DYEAR=1900
DGENRE=
TTITLE0=Bali Ha'i
TTITLE1=Basin Street Blues
TTITLE2=The Glory Of Love
TTITLE3=When my Sugar Walks Down the Street
TTITLE4=How Deep is the Ocean
TTITLE5=After you're Gone
TTITLE6=Cool Saturday Night
TTITLE7=When you're Smiling
TTITLE8=Summertime
TTITLE9=Exactly Like You
TTITLE10=Solitude
TTITLE11=Way down Yonder in New Orleans
TTITLE12=Mean to Me
TTITLE13=After I say I'm Sorry
TTITLE14=More than you Know
TTITLE15=Happy Talk
EXTD=
EXTT0=
EXTT1=
EXTT2=
EXTT3=
EXTT4=
EXTT5=
EXTT6=
EXTT7=
EXTT8=
EXTT9=
EXTT10=
EXTT11=
EXTT12=
EXTT13=
EXTT14=
EXTT15=
PLAYORDER=
